<svg aria-hidden="true" style="position: absolute; width: 0; height: 0; overflow: hidden;" version="1.1" xmlns="http://www.w3.org/2000/svg" xmlns:xlink="http://www.w3.org/1999/xlink">
<defs>
<symbol id="icon-search" viewBox="0 0 35 32">
<path fill="#fff" style="fill: var(--color1, #fff)" d="M24.168 13.538c0-2.372-0.92-4.401-2.759-6.087s-4.052-2.529-6.64-2.529c-2.587 0-4.801 0.843-6.64 2.529s-2.759 3.715-2.759 6.087c0 2.372 0.92 4.401 2.759 6.087s4.052 2.529 6.64 2.529c2.587 0 4.801-0.843 6.64-2.529s2.759-3.715 2.759-6.087zM34.909 29.538c0 0.667-0.266 1.244-0.797 1.731s-1.161 0.731-1.888 0.731c-0.755 0-1.384-0.244-1.888-0.731l-7.196-6.577c-2.503 1.59-5.294 2.385-8.371 2.385-2 0-3.913-0.356-5.738-1.067s-3.399-1.673-4.72-2.885c-1.322-1.212-2.371-2.654-3.147-4.327s-1.164-3.426-1.164-5.26c0-1.833 0.388-3.587 1.164-5.26s1.825-3.115 3.147-4.327c1.322-1.212 2.895-2.173 4.72-2.885s3.738-1.067 5.738-1.067c2 0 3.913 0.356 5.738 1.067s3.399 1.673 4.72 2.885c1.322 1.212 2.371 2.654 3.147 4.327s1.164 3.426 1.164 5.26c0 2.82-0.867 5.378-2.601 7.673l7.196 6.596c0.518 0.474 0.776 1.051 0.776 1.731z"></path>
</symbol>
<symbol id="icon-logo-part-3-mb" viewBox="0 0 14 32">
<path d="M6.666 1.165l4.364 1.17-3.412 11.431 6.43-2.075-6.736 19.801-4.313-1.329 3.92-11.523-6.052 1.952 5.798-19.426z"></path>
</symbol>
<symbol id="icon-logo-part-2-mb" viewBox="0 0 26 32">
<path fill="#fff" style="fill: var(--color1, #fff)" d="M25.866 7.956l-2.879 10.258-2.068-7.038-5.655 19.267h-6.68l-7.563-29.852h7.673l3.906 19.422 5.451-19.422h5.741l2.073 7.364z"></path>
</symbol>
<symbol id="icon-logo-part-1-mb" viewBox="0 0 34 32">
<path fill="#fff" style="fill: var(--color2, #fff)" d="M29.931 10.952l3.568 14.083-1.376 5.462h-6.656l-5.642-19.303-5.634 19.303h-6.655l-7.536-29.906h7.646l3.892 19.458 5.432-19.458h5.721l5.442 19.437 1.799-9.076z"></path>
</symbol>
</defs>
</svg>
